<svg xmlns="http://www.w3.org/2000/svg" viewBox="0 0 100 100" width="36" height="36">
  <defs>
    <linearGradient id="bg" x1="0%" y1="0%" x2="100%" y2="100%">
      <stop offset="0%" stop-color="#10B981"/>
      <stop offset="100%" stop-color="#059669"/>
    </linearGradient>
    <linearGradient id="palette" x1="0%" y1="0%" x2="100%" y2="100%">
      <stop offset="0%" stop-color="#0F766E"/>
      <stop offset="100%" stop-color="#064E3B"/>
    </linearGradient>
  </defs>
  <rect x="8" y="8" width="84" height="84" rx="20" fill="url(#bg)" stroke="#34D399" stroke-width="3"/>
  <ellipse cx="42" cy="50" rx="22" ry="26" fill="url(#palette)" transform="rotate(-15 42 50)"/>
  <circle cx="32" cy="38" r="5" fill="#FBBF24"/>
  <circle cx="48" cy="34" r="5" fill="#F472B6"/>
  <circle cx="30" cy="54" r="5" fill="#60A5FA"/>
  <circle cx="46" cy="58" r="5" fill="#A78BFA"/>
  <circle cx="38" cy="70" r="5" fill="#34D399"/>
  <path d="M58 28 L85 22 L80 35 L72 32 L65 55 L58 52 L65 32 L60 30 Z" fill="#34D399" stroke="#065F46" stroke-width="1.5" stroke-linejoin="round"/>
  <path d="M82 20 Q88 18 90 24 Q92 30 86 32 Q82 33 80 30" fill="none" stroke="#34D399" stroke-width="2" stroke-linecap="round"/>
</svg>