<svg width="256" height="256" viewBox="0 0 256 256" fill="none" xmlns="http://www.w3.org/2000/svg">
  <defs>
    <linearGradient id="logo-bg" x1="28" y1="24" x2="226" y2="228" gradientUnits="userSpaceOnUse">
      <stop stop-color="#03130E"/>
      <stop offset="1" stop-color="#071A14"/>
    </linearGradient>
    <linearGradient id="logo-green" x1="55" y1="56" x2="165" y2="180" gradientUnits="userSpaceOnUse">
      <stop stop-color="#39FF93"/>
      <stop offset="1" stop-color="#16D886"/>
    </linearGradient>
  </defs>
  <rect x="8" y="8" width="240" height="240" rx="52" fill="url(#logo-bg)"/>
  <rect x="8" y="8" width="240" height="240" rx="52" stroke="#163128" stroke-width="2"/>
  <path d="M60 182L98 74H130L167 182H139.5L132.5 159H93.5L86.5 182H60ZM101 134H125L113.3 95H112.4L101 134Z" fill="url(#logo-green)"/>
  <path d="M136 182V74H163V182H136Z" fill="url(#logo-green)"/>
  <rect x="176" y="96" width="17" height="17" rx="5" fill="#39FF93"/>
  <path d="M188.8 145.9H212.4V180H203.6V153.9H188.8V145.9Z" fill="white"/>
  <path d="M176 145.8H184.8V180H176V145.8Z" fill="white"/>
  <path d="M176 118.5H214.5V127H176V118.5Z" fill="white"/>
  <path d="M176 131.8H214.5V140.3H176V131.8Z" fill="white"/>
</svg>
