<?xml version="1.0" encoding="utf-8" ?><svg xmlns="http://www.w3.org/2000/svg" xmlns:xlink="http://www.w3.org/1999/xlink" width="1280" height="832" viewBox="0 0 1280 832"><path fill="#010118" d="M0 0L1280 0L1280 832L0 832L0 0Z"/><defs><linearGradient id="gradient_0" gradientUnits="userSpaceOnUse" x1="761.12408" y1="564.80951" x2="471.21106" y2="302.21234"><stop offset="0" stop-color="#00FFBE"/><stop offset="1" stop-color="#05FAFF"/></linearGradient></defs><path fill="url(#gradient_0)" d="M586.024 197.72C588.081 197.606 590.444 197.472 592.501 197.494C609.375 197.806 625.36 205.115 636.636 217.672C647.271 229.654 652.135 246.796 658.804 261.636L701.713 354.721C717.016 387.484 727.985 425.95 769.066 432.691C783.51 435.062 803.588 433.975 818.458 433.961L879.526 433.99C871.84 448.477 857.265 460.07 842.638 467.025C835.66 470.403 828.219 472.726 820.559 473.919C808.294 475.832 794.554 474.935 782.266 475.083C754.9 475.251 733.727 477.205 710.48 460.666C682.997 441.113 677.454 417.761 664.066 389.123L632.285 320.516C627.17 309.04 612.558 272.578 605.188 265.651C601.339 262.034 595.542 260.328 590.337 260.621C584.58 260.946 580.119 263.608 576.641 268.12C568.316 278.922 563.055 294.46 557.329 306.838L524.433 376.323C512.952 399.988 504.58 421.959 486.177 441.777C463.019 466.715 431.156 475.762 398.285 477.317C439.558 448.625 450.919 417.085 471.433 373.373L519.653 269.541C535.712 235.148 542.368 203.987 586.024 197.72Z"/><path fill="#00FF84" d="M519.464 432.587C566.658 432.943 613.853 432.949 661.047 432.607C669.51 450.574 680.511 461.156 694.717 474.625L544.163 474.384C521.176 474.419 496.023 474.014 473.175 474.622L472.153 472.248C494.154 462.627 506.136 452.68 519.464 432.587Z"/><path fill="#00FF84" d="M703.593 312.559C736.343 312.351 769.989 312.725 802.774 313.007C802.664 347.612 802.739 382.217 803 416.822L766.359 416.798L766.199 344.356L717.65 344.483C713.369 333.805 708.353 323.069 703.593 312.559Z"/><path fill="white" d="M591.424 524.414L715.59 524.485L715.551 532.558L658.229 532.54L658.188 549.461L686.232 549.441L686.214 590.064L686.179 592.19C685.976 606.45 686.418 598.836 691.776 604.352C692.192 606.34 691.686 607.186 691.021 609.109C689.959 609.699 620.484 609.982 616.069 609.431L615.442 608.564C615.385 606.304 615.216 605.361 616.253 603.289C617.572 602.41 617.689 602.337 619.214 601.84L619.567 601.729C620.908 597.125 620.292 556.838 620.299 549.409L648.193 549.468L648.2 532.546L591.373 532.552L591.424 524.414Z"/><path fill="#010118" d="M658.66 557.663L676.339 557.637L676.333 575.831C670.434 575.846 664.535 575.923 658.637 576.063C658.612 569.93 658.62 563.796 658.66 557.663Z"/><path fill="#010118" d="M630.54 557.553L647.92 557.546C647.955 563.615 647.956 569.684 647.923 575.753C642.346 576.006 636.151 575.881 630.511 575.928L630.54 557.553Z"/><path fill="#010118" d="M658.713 584.416L676.302 584.408L676.279 602.056C670.425 601.987 664.57 601.984 658.716 602.047L658.713 584.416Z"/><path fill="#010118" d="M630.613 584.42L647.942 584.418L647.931 601.82C642.197 601.908 636.362 601.844 630.602 601.899L630.613 584.42Z"/><path fill="white" d="M808.323 555.399L854.331 555.474L854.349 588.935L821.343 588.956L821.296 602.547L864.398 602.587C864.474 605.41 864.515 606.433 864.078 609.258C862.33 610.977 826.509 610.216 821.224 610.201L821.215 624.976L879.476 624.99L879.401 632.758C860.591 632.954 841.779 633.009 822.969 632.922L753.8 632.975L753.803 625.174L811.349 624.942L811.351 610.224L767.138 610.251L767.105 602.443L811.069 602.532L811.079 588.866L779.341 588.825L779.338 555.496L808.323 555.399Z"/><path fill="#010118" d="M840.899 562.272C841.829 562.26 842.62 562.471 843.544 562.643C845.418 565.167 844.567 577.638 844.505 581.406L792.344 581.395L789.769 581.175C787.8 578.586 788.714 566.324 788.774 562.393L840.899 562.272Z"/><path fill="#00FF84" d="M681.331 262.659L852.867 262.676C849.043 269.091 845.016 272.958 839.51 277.676C831.004 284.057 821.183 288.46 810.76 290.564C800.231 292.674 777.381 292.065 765.584 292.084L694.284 292.321C689.758 283.062 685.145 272.186 681.331 262.659Z"/><path fill="white" d="M445.427 530.346L456.147 530.313C460.562 541.729 468.88 558.833 474.142 570.236L501.953 630.619L490.504 630.654C485.548 621.321 481.062 610.444 476.877 600.685L455.938 600.698L424.202 600.661C419.572 610.638 415.026 620.654 410.564 630.707L399.413 630.705C413.55 598.694 432.484 562.14 445.427 530.346Z"/><path fill="#010118" d="M450.247 542.406C452.371 544.761 470.004 585.696 472.027 590.767L451.508 590.919L428.073 590.933C435.394 576.148 443.154 557.704 450.247 542.406Z"/><path fill="#00FF84" d="M778.149 196.373C779.333 198.093 778.794 239.849 778.785 245.482C743.77 245.204 708.754 245.221 673.739 245.531L670.975 239.569C668.163 233.265 665.424 226.93 662.756 220.565L751.834 220.755L751.787 203.843C761.54 202.011 768.764 199.643 778.149 196.373Z"/><path fill="#00FF84" d="M546.633 379.488L637.709 379.466C641.57 389.515 645.723 399.448 650.164 409.253L637.187 409.286L533.26 409.288C537.632 399.316 542.089 389.382 546.633 379.488Z"/><path fill="white" d="M699.895 552.548L709.9 552.604L710.002 640.754L700.006 640.761L700.029 631.488L605.248 631.568L605.215 640.652L595.293 640.624L595.455 594.777L595.413 556.993L605.142 557.006L605.141 623.233L700.139 623.044L699.895 552.548Z"/><path fill="#00FF84" d="M582.409 318.141L602.276 318.069L602.33 334.583L618.11 334.497C621.358 342.628 625.178 350.688 628.837 358.654L603.281 358.664L555.608 358.808C559.283 350.464 563.042 342.157 566.886 333.889L582.422 333.969L582.409 318.141Z"/><path fill="white" d="M859.218 514.654C862.286 516.872 865.01 518.42 868.265 520.306C863.69 525.924 859.45 531.063 854.571 536.453L874.262 536.505L874.13 563.753L864.371 563.819L864.361 544.059L767.889 544.206L767.687 565.031L758.637 565.283L758.689 536.365L772.995 536.323L762.782 523.906L768.045 520.557C772.745 524.017 776.028 526.929 780.04 531.105C778.166 532.987 775.511 534.811 773.331 536.417C779.871 536.471 786.411 536.437 792.95 536.318C794.558 535.68 795.796 535.46 797.24 534.859L798.363 534.689L798.858 536.435C803.491 536.412 821.008 536.075 824.686 536.821L824.281 534.641L825.229 534.958L826.16 536.382C834.575 536.747 845.63 536.421 854.241 536.404C851.473 534.827 848.859 533.147 846.174 531.441C850.975 526.212 855.337 520.598 859.218 514.654Z"/><path fill="#0B0E18" d="M797.24 534.859L798.363 534.689L798.858 536.435C796.888 536.425 794.919 536.386 792.95 536.318C794.558 535.68 795.796 535.46 797.24 534.859Z"/><path fill="#0B0E18" d="M824.281 534.641L825.229 534.958L826.16 536.382L824.686 536.821L824.281 534.641Z"/><path fill="white" d="M534.619 529.917L546.221 529.94L546.082 630.646L534.572 630.607L534.619 529.917Z"/><path fill="white" d="M811.769 518.564L817.392 513.934C822.76 518.621 828.011 523.442 833.14 528.39C830.524 530.621 827.774 532.766 825.229 534.958L824.281 534.641C822.755 531.548 814.511 522.014 811.769 518.564Z"/><path fill="white" d="M790.862 514.862C795.881 519.307 800.168 524.074 805.175 528.675C803.794 529.969 799.108 533.865 798.363 534.689L797.24 534.859C793.136 529.196 789.571 524.624 785.266 519.164C787.252 517.532 788.783 516.384 790.862 514.862Z"/><path fill="#17E7CC" d="M472.153 472.248L473.175 474.622C472.383 474.631 468.196 474.919 467.909 474.169C468.358 473.258 471.2 472.531 472.153 472.248Z"/></svg>